<svg width="159" height="159" viewBox="0 0 159 159" fill="none" xmlns="http://www.w3.org/2000/svg">
<path d="M86.515 120.531C81.5091 120.531 76.8882 119.475 72.7461 117.577L48.1536 122.839L55.4804 100.263C52.3478 93.9241 50.6201 86.5287 50.6201 78.7025C50.6201 55.9932 65.6691 37.4791 86.6919 37.4791C99.7427 37.4791 109.349 44.2488 115.874 55.4085L137.99 38.4843C126.573 20.1547 107.361 8 85.4326 8C50.2663 8 22 40.0639 22 78.7025C22 117.341 50.2767 150 85.4326 150C107.361 150 126.573 137.856 138 119.526L115.884 102.602C109.359 113.751 99.7531 120.531 86.5254 120.531H86.515Z" fill="url(#paint0_linear_343_44)"/>
<defs>
<linearGradient id="paint0_linear_343_44" x1="22" y1="79" x2="138" y2="79" gradientUnits="userSpaceOnUse">
<stop stop-color="#FF8018"/>
<stop offset="1" stop-color="#F02E0C"/>
</linearGradient>
</defs>
</svg>
