<svg width="638" height="342" viewBox="0 0 638 342" fill="none" xmlns="http://www.w3.org/2000/svg">
<rect x="638" width="342" height="198" rx="10" transform="rotate(90 638 0)" fill="#DE6C0E"/>
<path d="M576.889 128.626V119.653H569.355V128.626H576.889Z" fill="white"/>
<path d="M569.355 126.485V121.794H565.951V126.485H569.355Z" fill="white"/>
<path d="M524.334 149.602H566.084V137.048H576.953V149.602V161.218V173.596H566.084V161.218H524.334V149.602Z" fill="white"/>
<path d="M524.334 234.109H576.889V245.754H554.756V259.148H576.953V270.792H524.334V259.148H544.224V245.754H524.334V234.109Z" fill="white"/>
<path d="M577.391 93.375C577.391 105.872 568.628 111.492 559.866 111.492C551.104 111.492 542.417 105.868 542.417 93.375V83.4559H524.431V71.1958H577.391V93.375ZM552.95 92.8284C552.95 97.4372 556.486 99.1543 559.866 99.1543C563.246 99.1543 566.858 97.4372 566.858 92.9059V83.4559H552.946V92.8284H552.95Z" fill="white"/>
<path d="M561.347 130.604V128.924H565.955V121.794V119.355H529.42L524.334 124.139L529.42 128.924H558.86V130.604H551.402L551.399 133.112H561.344L561.347 130.604Z" fill="white"/>
<path d="M535.774 205.996C535.774 204.034 536.188 202.223 536.93 200.6L534.871 190.963L543.706 193.834C546.186 192.606 549.081 191.929 552.143 191.929C561.03 191.929 568.275 197.827 568.275 206.065C568.275 211.18 565.626 214.944 561.259 217.502L567.882 226.169C575.055 221.694 579.811 214.165 579.811 205.572C579.811 191.79 567.264 180.713 552.143 180.713C537.023 180.713 524.242 191.795 524.242 205.572C524.242 214.165 528.995 221.694 536.168 226.173L542.791 217.506C538.427 214.949 535.774 211.184 535.774 206V205.996Z" fill="white"/>
<path d="M507.384 89.7146L511.896 87.9386L507.384 86.1786V89.7146ZM503.784 86.6586H503V82.5306H503.784L504.056 83.6666L513.832 87.6026V89.0586L504.04 93.0106L503.784 94.2106H503V89.2826H503.784L504.072 91.0106L506.408 90.0986V85.8106L504.088 84.8986L503.784 86.6586ZM503.752 99.3551H503V95.2911H503.752L504.056 96.4751H509.448L510.136 95.2911H511L511.16 97.8511L508.984 98.0911C510.392 98.8751 511.224 100.107 511.224 101.403C511.224 102.587 510.584 103.547 509.048 103.547H504.072L503.752 104.683H503V100.635H503.752L504.056 101.819H508.76C509.624 101.819 509.848 101.627 509.864 101.019C509.896 99.4511 508.488 98.2031 506.392 98.2031H504.072L503.752 99.3551ZM514.84 111.907C514.84 112.515 514.408 112.947 513.784 112.947C512.952 112.947 512.392 112.275 512.392 111.587C512.392 110.995 512.776 110.515 513.48 110.515C514.312 110.515 514.84 111.235 514.84 111.907ZM503 114.131V109.635H503.752L504.072 110.899H509.464L510.136 109.635H511L511.16 112.627H504.088L503.752 114.131H503ZM502.824 121.278L505.064 121.134C503.768 120.526 502.84 119.422 502.84 118.302C502.84 116.606 504.456 115.134 506.76 115.134C509.384 115.134 511.224 116.942 511.224 119.23C511.224 119.966 511.064 120.638 510.856 121.102H513.144L513.8 119.422H514.68L514.84 122.83H504.2L503.736 124.014H503L502.824 121.278ZM504.12 118.622C504.12 119.838 505.736 121.102 508.584 121.102H509.336C509.88 120.638 510.184 119.694 510.184 119.054C510.184 117.742 509.336 117.086 507.384 117.086C505.208 117.086 504.12 117.822 504.12 118.622ZM510.152 128.219C509.832 127.691 508.984 127.179 507.768 127.051L507.832 130.715C509.736 130.571 510.312 129.483 510.312 128.763C510.312 128.571 510.264 128.395 510.152 128.219ZM504.68 132.395C503.416 131.675 502.824 130.395 502.824 128.955C502.824 127.003 504.2 125.195 506.52 125.195C509.336 125.195 511.24 127.307 511.24 129.547C511.24 131.371 509.496 132.651 507.416 132.651C507.224 132.651 507.032 132.651 506.84 132.619V127.035C505.064 127.147 504.232 128.219 504.232 129.643C504.232 130.331 504.504 131.195 505.192 131.787L504.68 132.395ZM503.944 137.046C503.944 137.958 505.224 139.094 506.92 139.11H507.24C507.064 138.134 506.84 137.382 506.552 136.87C506.216 136.278 505.672 136.006 505.032 136.006C504.344 136.006 503.944 136.406 503.944 137.046ZM502.84 139.222L504.696 139.142C503.736 138.71 502.824 137.734 502.824 136.358C502.824 135.238 503.416 134.166 504.792 134.166C506.568 134.166 507.368 135.83 508.024 139.11H508.92C509.816 139.11 510.232 138.79 510.232 137.926C510.232 136.998 509.704 136.31 508.52 135.814V135.078L510.456 134.662C510.776 135.19 511.208 136.422 511.208 137.638C511.208 139.622 510.328 140.822 508.6 140.822H504.2L503.736 142.006H503L502.84 139.222ZM503.864 148.945C503.432 148.497 502.824 147.601 502.824 146.433C502.824 145.057 503.592 144.145 505.032 144.145H510.024V142.529H511L511.416 144.049L513.528 144.801V145.921H511.016V148.257H510.024V145.921H504.728C504.264 145.921 504.12 146.081 504.12 146.465C504.12 147.281 504.376 148.001 504.632 148.529L503.864 148.945ZM514.84 152.235C514.84 152.843 514.408 153.275 513.784 153.275C512.952 153.275 512.392 152.603 512.392 151.915C512.392 151.323 512.776 150.843 513.48 150.843C514.312 150.843 514.84 151.563 514.84 152.235ZM503 154.459V149.963H503.752L504.072 151.227H509.464L510.136 149.963H511L511.16 152.955H504.088L503.752 154.459H503ZM502.808 159.142C502.808 157.094 504.504 155.382 506.616 155.382C509.336 155.382 511.208 157.222 511.208 159.702C511.208 161.51 509.768 163.478 507.384 163.478C504.6 163.478 502.808 161.574 502.808 159.142ZM510.168 159.142C510.168 158.134 509.224 157.302 507.272 157.302C505.192 157.302 503.864 158.406 503.864 159.75C503.864 160.646 504.488 161.542 506.552 161.542C508.744 161.542 510.168 160.614 510.168 159.142ZM503.752 168.933H503V164.869H503.752L504.056 166.053H509.448L510.136 164.869H511L511.16 167.429L508.984 167.669C510.392 168.453 511.224 169.685 511.224 170.981C511.224 172.165 510.584 173.125 509.048 173.125H504.072L503.752 174.261H503V170.213H503.752L504.056 171.397H508.76C509.624 171.397 509.848 171.205 509.864 170.597C509.896 169.029 508.488 167.781 506.392 167.781H504.072L503.752 168.933ZM505.192 185.645L504.696 186.285C503.432 185.549 502.808 184.397 502.808 182.877C502.808 180.845 504.216 179.117 506.536 179.117C509.304 179.117 511.224 181.149 511.224 183.821C511.224 184.685 511.096 185.501 510.808 186.205L508.76 185.821V185.005C509.704 184.509 510.184 183.693 510.216 183.053C510.232 182.733 510.2 182.509 510.024 182.237C509.656 181.661 508.648 181.101 507.192 181.101C505.368 181.101 504.264 182.029 504.264 183.597C504.264 184.301 504.552 185.053 505.192 185.645ZM503.944 190.359C503.944 191.271 505.224 192.407 506.92 192.423H507.24C507.064 191.447 506.84 190.695 506.552 190.183C506.216 189.591 505.672 189.319 505.032 189.319C504.344 189.319 503.944 189.719 503.944 190.359ZM502.84 192.535L504.696 192.455C503.736 192.023 502.824 191.047 502.824 189.671C502.824 188.551 503.416 187.479 504.792 187.479C506.568 187.479 507.368 189.143 508.024 192.423H508.92C509.816 192.423 510.232 192.103 510.232 191.239C510.232 190.311 509.704 189.623 508.52 189.127V188.391L510.456 187.975C510.776 188.503 511.208 189.735 511.208 190.951C511.208 192.935 510.328 194.135 508.6 194.135H504.2L503.736 195.319H503L502.84 192.535ZM503.752 200.802H503V196.338H503.752L504.056 197.522H509.464L510.136 196.338H511L511.176 198.914L508.744 199.186C510.184 199.682 511.208 200.53 511.208 202.178C511.208 202.45 511.208 202.722 511.144 203.058L508.632 202.77V201.874C509.416 201.666 509.688 201.41 509.688 200.994C509.688 200.082 507.464 199.266 505.128 199.266H505.16H504.088L503.752 200.802ZM502.824 210.137L505.064 209.993C503.768 209.385 502.84 208.281 502.84 207.161C502.84 205.465 504.456 203.993 506.76 203.993C509.384 203.993 511.224 205.801 511.224 208.089C511.224 208.825 511.064 209.497 510.856 209.961H513.144L513.8 208.281H514.68L514.84 211.689H504.2L503.736 212.873H503L502.824 210.137ZM504.12 207.481C504.12 208.697 505.736 209.961 508.584 209.961H509.336C509.88 209.497 510.184 208.553 510.184 207.913C510.184 206.601 509.336 205.945 507.384 205.945C505.208 205.945 504.12 206.681 504.12 207.481ZM507.992 222.985C509.256 222.985 510.312 222.169 510.312 221.257C510.312 220.569 509.752 220.121 508.776 220.121C507.464 220.121 506.52 220.969 506.52 221.849C506.52 222.521 507 222.985 507.992 222.985ZM502.328 225.689C500.568 225.689 499.464 223.913 499.464 221.417C499.464 219.481 500.072 217.897 501.432 217.897C502.28 217.897 502.84 218.537 503.192 219.353C503.416 218.809 503.848 218.425 504.504 218.425C505.256 218.425 505.784 218.953 506.136 219.689C506.616 218.825 507.416 218.329 508.44 218.329C510.088 218.329 511.24 219.721 511.24 221.961C511.24 222.553 511.208 223.065 511.144 223.785L511.016 225.657H509.624L510.232 223.497H510.136C509.576 224.425 508.888 224.793 508.104 224.793C506.504 224.793 505.704 223.081 505.704 221.641C505.704 221.257 505.752 220.889 505.816 220.553C505.624 220.057 505.368 219.849 505.096 219.849C504.392 219.849 504.616 221.401 504.44 222.953C504.264 224.745 503.752 225.689 502.328 225.689ZM500.36 221.977C500.36 223.289 500.84 224.073 501.688 224.073C503.176 224.073 502.84 221.737 503.032 220.105C502.696 219.705 502.28 219.481 501.816 219.481C500.824 219.481 500.36 220.441 500.36 221.977ZM503.944 229.859C503.944 230.771 505.224 231.907 506.92 231.923H507.24C507.064 230.947 506.84 230.195 506.552 229.683C506.216 229.091 505.672 228.819 505.032 228.819C504.344 228.819 503.944 229.219 503.944 229.859ZM502.84 232.035L504.696 231.955C503.736 231.523 502.824 230.547 502.824 229.171C502.824 228.051 503.416 226.979 504.792 226.979C506.568 226.979 507.368 228.643 508.024 231.923H508.92C509.816 231.923 510.232 231.603 510.232 230.739C510.232 229.811 509.704 229.123 508.52 228.627V227.891L510.456 227.475C510.776 228.003 511.208 229.235 511.208 230.451C511.208 232.435 510.328 233.635 508.6 233.635H504.2L503.736 234.819H503L502.84 232.035ZM503.752 239.902H503V235.838H503.752L504.056 237.022H509.448L510.136 235.838H511L511.16 238.398L508.984 238.638C510.392 239.422 511.224 240.654 511.224 241.95C511.224 243.102 510.616 244.046 509.16 244.094C510.472 244.878 511.224 246.062 511.224 247.294C511.224 248.478 510.584 249.438 509.048 249.438H504.072L503.752 250.574H503V246.526H503.752L504.056 247.71H508.76C509.624 247.71 509.848 247.518 509.864 246.91C509.896 245.342 508.424 244.094 506.12 244.094H504.072L503.752 245.23H503V241.182H503.752L504.056 242.366H508.76C509.624 242.366 509.848 242.174 509.864 241.566C509.896 239.998 508.488 238.75 506.392 238.75H504.072L503.752 239.902ZM510.152 254.578C509.832 254.05 508.984 253.538 507.768 253.41L507.832 257.074C509.736 256.93 510.312 255.842 510.312 255.122C510.312 254.93 510.264 254.754 510.152 254.578ZM504.68 258.754C503.416 258.034 502.824 256.754 502.824 255.314C502.824 253.362 504.2 251.554 506.52 251.554C509.336 251.554 511.24 253.666 511.24 255.906C511.24 257.73 509.496 259.01 507.416 259.01C507.224 259.01 507.032 259.01 506.84 258.978V253.394C505.064 253.506 504.232 254.578 504.232 256.002C504.232 256.69 504.504 257.554 505.192 258.146L504.68 258.754Z" fill="white"/>
<path d="M518.581 322.354H525.875V324.272H523.327V332H521.129V324.272H518.581V322.354ZM531.294 332.168C528.536 332.168 526.366 329.9 526.366 327.17C526.366 324.44 528.536 322.186 531.294 322.186C534.01 322.186 536.208 324.44 536.208 327.17C536.208 329.9 534.01 332.168 531.294 332.168ZM531.28 330.096C532.89 330.096 533.996 328.78 533.996 327.17C533.996 325.56 532.89 324.258 531.28 324.258C529.656 324.258 528.578 325.56 528.578 327.17C528.578 328.78 529.656 330.096 531.28 330.096ZM537.864 322.354H541.84C544.08 322.354 545.088 323.95 545.088 325.546C545.088 327.156 544.08 328.724 541.84 328.724H540.062V332H537.864V322.354ZM540.062 326.806H541.742C542.568 326.806 542.876 326.162 542.876 325.546C542.876 324.93 542.568 324.272 541.756 324.272H540.062V326.806ZM548.743 332H546.545V322.354H548.743V332ZM555.315 332.168C552.599 332.168 550.415 329.9 550.415 327.156C550.415 324.44 552.599 322.186 555.315 322.186C557.009 322.186 558.493 323.04 559.375 324.328L557.667 325.518C557.163 324.734 556.421 324.258 555.413 324.258C553.789 324.258 552.627 325.56 552.627 327.156C552.627 328.752 553.747 330.096 555.399 330.096C556.421 330.096 557.163 329.62 557.667 328.836L559.375 330.026C558.493 331.314 557.009 332.168 555.315 332.168Z" fill="white"/>
<rect x="418" width="342" height="198" rx="10" transform="rotate(90 418 0)" fill="#007A78"/>
<path d="M356.889 128.626V119.653H349.355V128.626H356.889Z" fill="white"/>
<path d="M349.355 126.485V121.794H345.951V126.485H349.355Z" fill="white"/>
<path d="M304.334 149.602H346.084V137.048H356.953V149.602V161.218V173.596H346.084V161.218H304.334V149.602Z" fill="white"/>
<path d="M304.334 234.109H356.889V245.754H334.756V259.148H356.953V270.792H304.334V259.148H324.224V245.754H304.334V234.109Z" fill="white"/>
<path d="M357.391 93.375C357.391 105.872 348.628 111.492 339.866 111.492C331.104 111.492 322.417 105.868 322.417 93.375V83.4559H304.431V71.1958H357.391V93.375ZM332.95 92.8284C332.95 97.4372 336.486 99.1543 339.866 99.1543C343.246 99.1543 346.858 97.4372 346.858 92.9059V83.4559H332.946V92.8284H332.95Z" fill="white"/>
<path d="M341.347 130.604V128.924H345.955V121.794V119.355H309.42L304.334 124.139L309.42 128.924H338.86V130.604H331.402L331.399 133.112H341.344L341.347 130.604Z" fill="white"/>
<path d="M315.774 205.996C315.774 204.034 316.188 202.223 316.93 200.6L314.871 190.963L323.706 193.834C326.186 192.606 329.081 191.929 332.143 191.929C341.03 191.929 348.275 197.827 348.275 206.065C348.275 211.18 345.626 214.944 341.259 217.502L347.882 226.169C355.055 221.694 359.811 214.165 359.811 205.572C359.811 191.79 347.264 180.713 332.143 180.713C317.023 180.713 304.242 191.795 304.242 205.572C304.242 214.165 308.995 221.694 316.168 226.173L322.791 217.506C318.427 214.949 315.774 211.184 315.774 206V205.996Z" fill="white"/>
<path d="M287.384 89.7146L291.896 87.9386L287.384 86.1786V89.7146ZM283.784 86.6586H283V82.5306H283.784L284.056 83.6666L293.832 87.6026V89.0586L284.04 93.0106L283.784 94.2106H283V89.2826H283.784L284.072 91.0106L286.408 90.0986V85.8106L284.088 84.8986L283.784 86.6586ZM283.752 99.3551H283V95.2911H283.752L284.056 96.4751H289.448L290.136 95.2911H291L291.16 97.8511L288.984 98.0911C290.392 98.8751 291.224 100.107 291.224 101.403C291.224 102.587 290.584 103.547 289.048 103.547H284.072L283.752 104.683H283V100.635H283.752L284.056 101.819H288.76C289.624 101.819 289.848 101.627 289.864 101.019C289.896 99.4511 288.488 98.2031 286.392 98.2031H284.072L283.752 99.3551ZM294.84 111.907C294.84 112.515 294.408 112.947 293.784 112.947C292.952 112.947 292.392 112.275 292.392 111.587C292.392 110.995 292.776 110.515 293.48 110.515C294.312 110.515 294.84 111.235 294.84 111.907ZM283 114.131V109.635H283.752L284.072 110.899H289.464L290.136 109.635H291L291.16 112.627H284.088L283.752 114.131H283ZM282.824 121.278L285.064 121.134C283.768 120.526 282.84 119.422 282.84 118.302C282.84 116.606 284.456 115.134 286.76 115.134C289.384 115.134 291.224 116.942 291.224 119.23C291.224 119.966 291.064 120.638 290.856 121.102H293.144L293.8 119.422H294.68L294.84 122.83H284.2L283.736 124.014H283L282.824 121.278ZM284.12 118.622C284.12 119.838 285.736 121.102 288.584 121.102H289.336C289.88 120.638 290.184 119.694 290.184 119.054C290.184 117.742 289.336 117.086 287.384 117.086C285.208 117.086 284.12 117.822 284.12 118.622ZM290.152 128.219C289.832 127.691 288.984 127.179 287.768 127.051L287.832 130.715C289.736 130.571 290.312 129.483 290.312 128.763C290.312 128.571 290.264 128.395 290.152 128.219ZM284.68 132.395C283.416 131.675 282.824 130.395 282.824 128.955C282.824 127.003 284.2 125.195 286.52 125.195C289.336 125.195 291.24 127.307 291.24 129.547C291.24 131.371 289.496 132.651 287.416 132.651C287.224 132.651 287.032 132.651 286.84 132.619V127.035C285.064 127.147 284.232 128.219 284.232 129.643C284.232 130.331 284.504 131.195 285.192 131.787L284.68 132.395ZM283.944 137.046C283.944 137.958 285.224 139.094 286.92 139.11H287.24C287.064 138.134 286.84 137.382 286.552 136.87C286.216 136.278 285.672 136.006 285.032 136.006C284.344 136.006 283.944 136.406 283.944 137.046ZM282.84 139.222L284.696 139.142C283.736 138.71 282.824 137.734 282.824 136.358C282.824 135.238 283.416 134.166 284.792 134.166C286.568 134.166 287.368 135.83 288.024 139.11H288.92C289.816 139.11 290.232 138.79 290.232 137.926C290.232 136.998 289.704 136.31 288.52 135.814V135.078L290.456 134.662C290.776 135.19 291.208 136.422 291.208 137.638C291.208 139.622 290.328 140.822 288.6 140.822H284.2L283.736 142.006H283L282.84 139.222ZM283.864 148.945C283.432 148.497 282.824 147.601 282.824 146.433C282.824 145.057 283.592 144.145 285.032 144.145H290.024V142.529H291L291.416 144.049L293.528 144.801V145.921H291.016V148.257H290.024V145.921H284.728C284.264 145.921 284.12 146.081 284.12 146.465C284.12 147.281 284.376 148.001 284.632 148.529L283.864 148.945ZM294.84 152.235C294.84 152.843 294.408 153.275 293.784 153.275C292.952 153.275 292.392 152.603 292.392 151.915C292.392 151.323 292.776 150.843 293.48 150.843C294.312 150.843 294.84 151.563 294.84 152.235ZM283 154.459V149.963H283.752L284.072 151.227H289.464L290.136 149.963H291L291.16 152.955H284.088L283.752 154.459H283ZM282.808 159.142C282.808 157.094 284.504 155.382 286.616 155.382C289.336 155.382 291.208 157.222 291.208 159.702C291.208 161.51 289.768 163.478 287.384 163.478C284.6 163.478 282.808 161.574 282.808 159.142ZM290.168 159.142C290.168 158.134 289.224 157.302 287.272 157.302C285.192 157.302 283.864 158.406 283.864 159.75C283.864 160.646 284.488 161.542 286.552 161.542C288.744 161.542 290.168 160.614 290.168 159.142ZM283.752 168.933H283V164.869H283.752L284.056 166.053H289.448L290.136 164.869H291L291.16 167.429L288.984 167.669C290.392 168.453 291.224 169.685 291.224 170.981C291.224 172.165 290.584 173.125 289.048 173.125H284.072L283.752 174.261H283V170.213H283.752L284.056 171.397H288.76C289.624 171.397 289.848 171.205 289.864 170.597C289.896 169.029 288.488 167.781 286.392 167.781H284.072L283.752 168.933ZM285.192 185.645L284.696 186.285C283.432 185.549 282.808 184.397 282.808 182.877C282.808 180.845 284.216 179.117 286.536 179.117C289.304 179.117 291.224 181.149 291.224 183.821C291.224 184.685 291.096 185.501 290.808 186.205L288.76 185.821V185.005C289.704 184.509 290.184 183.693 290.216 183.053C290.232 182.733 290.2 182.509 290.024 182.237C289.656 181.661 288.648 181.101 287.192 181.101C285.368 181.101 284.264 182.029 284.264 183.597C284.264 184.301 284.552 185.053 285.192 185.645ZM283.944 190.359C283.944 191.271 285.224 192.407 286.92 192.423H287.24C287.064 191.447 286.84 190.695 286.552 190.183C286.216 189.591 285.672 189.319 285.032 189.319C284.344 189.319 283.944 189.719 283.944 190.359ZM282.84 192.535L284.696 192.455C283.736 192.023 282.824 191.047 282.824 189.671C282.824 188.551 283.416 187.479 284.792 187.479C286.568 187.479 287.368 189.143 288.024 192.423H288.92C289.816 192.423 290.232 192.103 290.232 191.239C290.232 190.311 289.704 189.623 288.52 189.127V188.391L290.456 187.975C290.776 188.503 291.208 189.735 291.208 190.951C291.208 192.935 290.328 194.135 288.6 194.135H284.2L283.736 195.319H283L282.84 192.535ZM283.752 200.802H283V196.338H283.752L284.056 197.522H289.464L290.136 196.338H291L291.176 198.914L288.744 199.186C290.184 199.682 291.208 200.53 291.208 202.178C291.208 202.45 291.208 202.722 291.144 203.058L288.632 202.77V201.874C289.416 201.666 289.688 201.41 289.688 200.994C289.688 200.082 287.464 199.266 285.128 199.266H285.16H284.088L283.752 200.802ZM282.824 210.137L285.064 209.993C283.768 209.385 282.84 208.281 282.84 207.161C282.84 205.465 284.456 203.993 286.76 203.993C289.384 203.993 291.224 205.801 291.224 208.089C291.224 208.825 291.064 209.497 290.856 209.961H293.144L293.8 208.281H294.68L294.84 211.689H284.2L283.736 212.873H283L282.824 210.137ZM284.12 207.481C284.12 208.697 285.736 209.961 288.584 209.961H289.336C289.88 209.497 290.184 208.553 290.184 207.913C290.184 206.601 289.336 205.945 287.384 205.945C285.208 205.945 284.12 206.681 284.12 207.481ZM287.992 222.985C289.256 222.985 290.312 222.169 290.312 221.257C290.312 220.569 289.752 220.121 288.776 220.121C287.464 220.121 286.52 220.969 286.52 221.849C286.52 222.521 287 222.985 287.992 222.985ZM282.328 225.689C280.568 225.689 279.464 223.913 279.464 221.417C279.464 219.481 280.072 217.897 281.432 217.897C282.28 217.897 282.84 218.537 283.192 219.353C283.416 218.809 283.848 218.425 284.504 218.425C285.256 218.425 285.784 218.953 286.136 219.689C286.616 218.825 287.416 218.329 288.44 218.329C290.088 218.329 291.24 219.721 291.24 221.961C291.24 222.553 291.208 223.065 291.144 223.785L291.016 225.657H289.624L290.232 223.497H290.136C289.576 224.425 288.888 224.793 288.104 224.793C286.504 224.793 285.704 223.081 285.704 221.641C285.704 221.257 285.752 220.889 285.816 220.553C285.624 220.057 285.368 219.849 285.096 219.849C284.392 219.849 284.616 221.401 284.44 222.953C284.264 224.745 283.752 225.689 282.328 225.689ZM280.36 221.977C280.36 223.289 280.84 224.073 281.688 224.073C283.176 224.073 282.84 221.737 283.032 220.105C282.696 219.705 282.28 219.481 281.816 219.481C280.824 219.481 280.36 220.441 280.36 221.977ZM283.944 229.859C283.944 230.771 285.224 231.907 286.92 231.923H287.24C287.064 230.947 286.84 230.195 286.552 229.683C286.216 229.091 285.672 228.819 285.032 228.819C284.344 228.819 283.944 229.219 283.944 229.859ZM282.84 232.035L284.696 231.955C283.736 231.523 282.824 230.547 282.824 229.171C282.824 228.051 283.416 226.979 284.792 226.979C286.568 226.979 287.368 228.643 288.024 231.923H288.92C289.816 231.923 290.232 231.603 290.232 230.739C290.232 229.811 289.704 229.123 288.52 228.627V227.891L290.456 227.475C290.776 228.003 291.208 229.235 291.208 230.451C291.208 232.435 290.328 233.635 288.6 233.635H284.2L283.736 234.819H283L282.84 232.035ZM283.752 239.902H283V235.838H283.752L284.056 237.022H289.448L290.136 235.838H291L291.16 238.398L288.984 238.638C290.392 239.422 291.224 240.654 291.224 241.95C291.224 243.102 290.616 244.046 289.16 244.094C290.472 244.878 291.224 246.062 291.224 247.294C291.224 248.478 290.584 249.438 289.048 249.438H284.072L283.752 250.574H283V246.526H283.752L284.056 247.71H288.76C289.624 247.71 289.848 247.518 289.864 246.91C289.896 245.342 288.424 244.094 286.12 244.094H284.072L283.752 245.23H283V241.182H283.752L284.056 242.366H288.76C289.624 242.366 289.848 242.174 289.864 241.566C289.896 239.998 288.488 238.75 286.392 238.75H284.072L283.752 239.902ZM290.152 254.578C289.832 254.05 288.984 253.538 287.768 253.41L287.832 257.074C289.736 256.93 290.312 255.842 290.312 255.122C290.312 254.93 290.264 254.754 290.152 254.578ZM284.68 258.754C283.416 258.034 282.824 256.754 282.824 255.314C282.824 253.362 284.2 251.554 286.52 251.554C289.336 251.554 291.24 253.666 291.24 255.906C291.24 257.73 289.496 259.01 287.416 259.01C287.224 259.01 287.032 259.01 286.84 258.978V253.394C285.064 253.506 284.232 254.578 284.232 256.002C284.232 256.69 284.504 257.554 285.192 258.146L284.68 258.754Z" fill="white"/>
<path d="M291.156 322.354H295.132C297.372 322.354 298.38 323.95 298.38 325.546C298.38 327.156 297.372 328.724 295.132 328.724H293.354V332H291.156V322.354ZM293.354 326.806H295.034C295.86 326.806 296.168 326.162 296.168 325.546C296.168 324.93 295.86 324.272 295.048 324.272H293.354V326.806ZM307.257 332H304.695L302.483 328.612H302.035V332H299.837V322.354H303.785C306.025 322.354 307.033 323.95 307.033 325.546C307.033 326.904 306.025 328.206 304.779 328.486L307.257 332ZM303.491 324.272H302.035V326.876H303.435C304.401 326.876 304.821 326.246 304.821 325.602C304.821 324.958 304.387 324.272 303.491 324.272ZM313.133 332.168C310.375 332.168 308.205 329.9 308.205 327.17C308.205 324.44 310.375 322.186 313.133 322.186C315.849 322.186 318.047 324.44 318.047 327.17C318.047 329.9 315.849 332.168 313.133 332.168ZM313.119 330.096C314.729 330.096 315.835 328.78 315.835 327.17C315.835 325.56 314.729 324.258 313.119 324.258C311.495 324.258 310.417 325.56 310.417 327.17C310.417 328.78 311.495 330.096 313.119 330.096ZM329.644 322.354L330.82 332H328.566L327.936 326.512L325.836 330.894H324.156L322.056 326.526L321.412 332H319.158L320.348 322.354H322.182L324.996 328.388L327.768 322.354H329.644ZM332.527 322.354H336.503C338.743 322.354 339.751 323.95 339.751 325.546C339.751 327.156 338.743 328.724 336.503 328.724H334.725V332H332.527V322.354ZM334.725 326.806H336.405C337.231 326.806 337.539 326.162 337.539 325.546C337.539 324.93 337.231 324.272 336.419 324.272H334.725V326.806ZM340.383 322.354H347.677V324.272H345.129V332H342.931V324.272H340.383V322.354Z" fill="white"/>
<rect x="198" width="342" height="198" rx="10" transform="rotate(90 198 0)" fill="#9D1C20"/>
<path d="M136.889 128.626V119.653H129.355V128.626H136.889Z" fill="white"/>
<path d="M129.355 126.485V121.794H125.951V126.485H129.355Z" fill="white"/>
<path d="M84.3345 149.602H126.084V137.048H136.953V149.602V161.218V173.596H126.084V161.218H84.3345V149.602Z" fill="white"/>
<path d="M84.3345 234.109H136.889V245.754H114.756V259.148H136.953V270.792H84.3345V259.148H104.224V245.754H84.3345V234.109Z" fill="white"/>
<path d="M137.391 93.375C137.391 105.872 128.628 111.492 119.866 111.492C111.104 111.492 102.417 105.868 102.417 93.375V83.4559H84.4308V71.1958H137.391V93.375ZM112.95 92.8284C112.95 97.4372 116.486 99.1543 119.866 99.1543C123.246 99.1543 126.858 97.4372 126.858 92.9059V83.4559H112.946V92.8284H112.95Z" fill="white"/>
<path d="M121.347 130.604V128.924H125.955V121.794V119.355H89.4202L84.3345 124.139L89.4202 128.924H118.86V130.604H111.402L111.399 133.112H121.344L121.347 130.604Z" fill="white"/>
<path d="M95.7742 205.996C95.7742 204.034 96.1877 202.223 96.9303 200.6L94.8711 190.963L103.706 193.834C106.186 192.606 109.081 191.929 112.143 191.929C121.03 191.929 128.275 197.827 128.275 206.065C128.275 211.18 125.626 214.944 121.259 217.502L127.882 226.169C135.055 221.694 139.811 214.165 139.811 205.572C139.811 191.79 127.264 180.713 112.143 180.713C97.0226 180.713 84.2421 191.795 84.2421 205.572C84.2421 214.165 88.9947 221.694 96.1676 226.173L102.791 217.506C98.4275 214.949 95.7742 211.184 95.7742 206V205.996Z" fill="white"/>
<path d="M67.384 89.7146L71.896 87.9386L67.384 86.1786V89.7146ZM63.784 86.6586H63V82.5306H63.784L64.056 83.6666L73.832 87.6026V89.0586L64.04 93.0106L63.784 94.2106H63V89.2826H63.784L64.072 91.0106L66.408 90.0986V85.8106L64.088 84.8986L63.784 86.6586ZM63.752 99.3551H63V95.2911H63.752L64.056 96.4751H69.448L70.136 95.2911H71L71.16 97.8511L68.984 98.0911C70.392 98.8751 71.224 100.107 71.224 101.403C71.224 102.587 70.584 103.547 69.048 103.547H64.072L63.752 104.683H63V100.635H63.752L64.056 101.819H68.76C69.624 101.819 69.848 101.627 69.864 101.019C69.896 99.4511 68.488 98.2031 66.392 98.2031H64.072L63.752 99.3551ZM74.84 111.907C74.84 112.515 74.408 112.947 73.784 112.947C72.952 112.947 72.392 112.275 72.392 111.587C72.392 110.995 72.776 110.515 73.48 110.515C74.312 110.515 74.84 111.235 74.84 111.907ZM63 114.131V109.635H63.752L64.072 110.899H69.464L70.136 109.635H71L71.16 112.627H64.088L63.752 114.131H63ZM62.824 121.278L65.064 121.134C63.768 120.526 62.84 119.422 62.84 118.302C62.84 116.606 64.456 115.134 66.76 115.134C69.384 115.134 71.224 116.942 71.224 119.23C71.224 119.966 71.064 120.638 70.856 121.102H73.144L73.8 119.422H74.68L74.84 122.83H64.2L63.736 124.014H63L62.824 121.278ZM64.12 118.622C64.12 119.838 65.736 121.102 68.584 121.102H69.336C69.88 120.638 70.184 119.694 70.184 119.054C70.184 117.742 69.336 117.086 67.384 117.086C65.208 117.086 64.12 117.822 64.12 118.622ZM70.152 128.219C69.832 127.691 68.984 127.179 67.768 127.051L67.832 130.715C69.736 130.571 70.312 129.483 70.312 128.763C70.312 128.571 70.264 128.395 70.152 128.219ZM64.68 132.395C63.416 131.675 62.824 130.395 62.824 128.955C62.824 127.003 64.2 125.195 66.52 125.195C69.336 125.195 71.24 127.307 71.24 129.547C71.24 131.371 69.496 132.651 67.416 132.651C67.224 132.651 67.032 132.651 66.84 132.619V127.035C65.064 127.147 64.232 128.219 64.232 129.643C64.232 130.331 64.504 131.195 65.192 131.787L64.68 132.395ZM63.944 137.046C63.944 137.958 65.224 139.094 66.92 139.11H67.24C67.064 138.134 66.84 137.382 66.552 136.87C66.216 136.278 65.672 136.006 65.032 136.006C64.344 136.006 63.944 136.406 63.944 137.046ZM62.84 139.222L64.696 139.142C63.736 138.71 62.824 137.734 62.824 136.358C62.824 135.238 63.416 134.166 64.792 134.166C66.568 134.166 67.368 135.83 68.024 139.11H68.92C69.816 139.11 70.232 138.79 70.232 137.926C70.232 136.998 69.704 136.31 68.52 135.814V135.078L70.456 134.662C70.776 135.19 71.208 136.422 71.208 137.638C71.208 139.622 70.328 140.822 68.6 140.822H64.2L63.736 142.006H63L62.84 139.222ZM63.864 148.945C63.432 148.497 62.824 147.601 62.824 146.433C62.824 145.057 63.592 144.145 65.032 144.145H70.024V142.529H71L71.416 144.049L73.528 144.801V145.921H71.016V148.257H70.024V145.921H64.728C64.264 145.921 64.12 146.081 64.12 146.465C64.12 147.281 64.376 148.001 64.632 148.529L63.864 148.945ZM74.84 152.235C74.84 152.843 74.408 153.275 73.784 153.275C72.952 153.275 72.392 152.603 72.392 151.915C72.392 151.323 72.776 150.843 73.48 150.843C74.312 150.843 74.84 151.563 74.84 152.235ZM63 154.459V149.963H63.752L64.072 151.227H69.464L70.136 149.963H71L71.16 152.955H64.088L63.752 154.459H63ZM62.808 159.142C62.808 157.094 64.504 155.382 66.616 155.382C69.336 155.382 71.208 157.222 71.208 159.702C71.208 161.51 69.768 163.478 67.384 163.478C64.6 163.478 62.808 161.574 62.808 159.142ZM70.168 159.142C70.168 158.134 69.224 157.302 67.272 157.302C65.192 157.302 63.864 158.406 63.864 159.75C63.864 160.646 64.488 161.542 66.552 161.542C68.744 161.542 70.168 160.614 70.168 159.142ZM63.752 168.933H63V164.869H63.752L64.056 166.053H69.448L70.136 164.869H71L71.16 167.429L68.984 167.669C70.392 168.453 71.224 169.685 71.224 170.981C71.224 172.165 70.584 173.125 69.048 173.125H64.072L63.752 174.261H63V170.213H63.752L64.056 171.397H68.76C69.624 171.397 69.848 171.205 69.864 170.597C69.896 169.029 68.488 167.781 66.392 167.781H64.072L63.752 168.933ZM65.192 185.645L64.696 186.285C63.432 185.549 62.808 184.397 62.808 182.877C62.808 180.845 64.216 179.117 66.536 179.117C69.304 179.117 71.224 181.149 71.224 183.821C71.224 184.685 71.096 185.501 70.808 186.205L68.76 185.821V185.005C69.704 184.509 70.184 183.693 70.216 183.053C70.232 182.733 70.2 182.509 70.024 182.237C69.656 181.661 68.648 181.101 67.192 181.101C65.368 181.101 64.264 182.029 64.264 183.597C64.264 184.301 64.552 185.053 65.192 185.645ZM63.944 190.359C63.944 191.271 65.224 192.407 66.92 192.423H67.24C67.064 191.447 66.84 190.695 66.552 190.183C66.216 189.591 65.672 189.319 65.032 189.319C64.344 189.319 63.944 189.719 63.944 190.359ZM62.84 192.535L64.696 192.455C63.736 192.023 62.824 191.047 62.824 189.671C62.824 188.551 63.416 187.479 64.792 187.479C66.568 187.479 67.368 189.143 68.024 192.423H68.92C69.816 192.423 70.232 192.103 70.232 191.239C70.232 190.311 69.704 189.623 68.52 189.127V188.391L70.456 187.975C70.776 188.503 71.208 189.735 71.208 190.951C71.208 192.935 70.328 194.135 68.6 194.135H64.2L63.736 195.319H63L62.84 192.535ZM63.752 200.802H63V196.338H63.752L64.056 197.522H69.464L70.136 196.338H71L71.176 198.914L68.744 199.186C70.184 199.682 71.208 200.53 71.208 202.178C71.208 202.45 71.208 202.722 71.144 203.058L68.632 202.77V201.874C69.416 201.666 69.688 201.41 69.688 200.994C69.688 200.082 67.464 199.266 65.128 199.266H65.16H64.088L63.752 200.802ZM62.824 210.137L65.064 209.993C63.768 209.385 62.84 208.281 62.84 207.161C62.84 205.465 64.456 203.993 66.76 203.993C69.384 203.993 71.224 205.801 71.224 208.089C71.224 208.825 71.064 209.497 70.856 209.961H73.144L73.8 208.281H74.68L74.84 211.689H64.2L63.736 212.873H63L62.824 210.137ZM64.12 207.481C64.12 208.697 65.736 209.961 68.584 209.961H69.336C69.88 209.497 70.184 208.553 70.184 207.913C70.184 206.601 69.336 205.945 67.384 205.945C65.208 205.945 64.12 206.681 64.12 207.481ZM67.992 222.985C69.256 222.985 70.312 222.169 70.312 221.257C70.312 220.569 69.752 220.121 68.776 220.121C67.464 220.121 66.52 220.969 66.52 221.849C66.52 222.521 67 222.985 67.992 222.985ZM62.328 225.689C60.568 225.689 59.464 223.913 59.464 221.417C59.464 219.481 60.072 217.897 61.432 217.897C62.28 217.897 62.84 218.537 63.192 219.353C63.416 218.809 63.848 218.425 64.504 218.425C65.256 218.425 65.784 218.953 66.136 219.689C66.616 218.825 67.416 218.329 68.44 218.329C70.088 218.329 71.24 219.721 71.24 221.961C71.24 222.553 71.208 223.065 71.144 223.785L71.016 225.657H69.624L70.232 223.497H70.136C69.576 224.425 68.888 224.793 68.104 224.793C66.504 224.793 65.704 223.081 65.704 221.641C65.704 221.257 65.752 220.889 65.816 220.553C65.624 220.057 65.368 219.849 65.096 219.849C64.392 219.849 64.616 221.401 64.44 222.953C64.264 224.745 63.752 225.689 62.328 225.689ZM60.36 221.977C60.36 223.289 60.84 224.073 61.688 224.073C63.176 224.073 62.84 221.737 63.032 220.105C62.696 219.705 62.28 219.481 61.816 219.481C60.824 219.481 60.36 220.441 60.36 221.977ZM63.944 229.859C63.944 230.771 65.224 231.907 66.92 231.923H67.24C67.064 230.947 66.84 230.195 66.552 229.683C66.216 229.091 65.672 228.819 65.032 228.819C64.344 228.819 63.944 229.219 63.944 229.859ZM62.84 232.035L64.696 231.955C63.736 231.523 62.824 230.547 62.824 229.171C62.824 228.051 63.416 226.979 64.792 226.979C66.568 226.979 67.368 228.643 68.024 231.923H68.92C69.816 231.923 70.232 231.603 70.232 230.739C70.232 229.811 69.704 229.123 68.52 228.627V227.891L70.456 227.475C70.776 228.003 71.208 229.235 71.208 230.451C71.208 232.435 70.328 233.635 68.6 233.635H64.2L63.736 234.819H63L62.84 232.035ZM63.752 239.902H63V235.838H63.752L64.056 237.022H69.448L70.136 235.838H71L71.16 238.398L68.984 238.638C70.392 239.422 71.224 240.654 71.224 241.95C71.224 243.102 70.616 244.046 69.16 244.094C70.472 244.878 71.224 246.062 71.224 247.294C71.224 248.478 70.584 249.438 69.048 249.438H64.072L63.752 250.574H63V246.526H63.752L64.056 247.71H68.76C69.624 247.71 69.848 247.518 69.864 246.91C69.896 245.342 68.424 244.094 66.12 244.094H64.072L63.752 245.23H63V241.182H63.752L64.056 242.366H68.76C69.624 242.366 69.848 242.174 69.864 241.566C69.896 239.998 68.488 238.75 66.392 238.75H64.072L63.752 239.902ZM70.152 254.578C69.832 254.05 68.984 253.538 67.768 253.41L67.832 257.074C69.736 256.93 70.312 255.842 70.312 255.122C70.312 254.93 70.264 254.754 70.152 254.578ZM64.68 258.754C63.416 258.034 62.824 256.754 62.824 255.314C62.824 253.362 64.2 251.554 66.52 251.554C69.336 251.554 71.24 253.666 71.24 255.906C71.24 257.73 69.496 259.01 67.416 259.01C67.224 259.01 67.032 259.01 66.84 258.978V253.394C65.064 253.506 64.232 254.578 64.232 256.002C64.232 256.69 64.504 257.554 65.192 258.146L64.68 258.754Z" fill="white"/>
<path d="M84.2296 332.168C81.2616 332.168 79.1476 329.9 79.1476 327.184C79.1476 324.44 81.3176 322.186 84.1036 322.186C85.6296 322.186 86.9596 322.83 87.7996 323.838L86.1756 325.196C85.6576 324.594 84.9296 324.23 84.1036 324.23C82.5496 324.23 81.3596 325.574 81.3596 327.184C81.3596 328.766 82.5216 330.208 84.1736 330.208C85.2516 330.208 86.4416 329.606 86.4416 328.654H83.7256V326.876H88.8356C88.8356 330.53 86.8056 332.168 84.2296 332.168ZM98.5369 332H96.1989L95.4709 329.76H92.0829L91.3689 332H89.0169L92.5869 322.354H94.9809L98.5369 332ZM93.7629 324.454L92.6849 327.856H94.8549L93.7629 324.454ZM109.514 322.354L110.69 332H108.436L107.806 326.512L105.706 330.894H104.026L101.926 326.526L101.282 332H99.0281L100.218 322.354H102.052L104.866 328.388L107.638 322.354H109.514ZM114.595 328.234V330.082H118.711V332H112.397V322.354H118.585V324.272H114.595V326.26H118.095V328.234H114.595Z" fill="white"/>
</svg>
