<svg width="1572" height="440" viewBox="0 0 1572 440" fill="none" xmlns="http://www.w3.org/2000/svg">
<path d="M617.811 437.696V109.424H519.138V23.9553H617.811H709.11H806.405V109.424H709.11V437.696H617.811Z" fill="white"/>
<path d="M1282.04 437.696V24.4602H1373.56V198.491H1478.84V23.9553H1570.36V437.696H1478.84V281.308H1373.56V437.696H1282.04Z" fill="white"/>
<path d="M175.867 20.515C274.091 20.515 318.266 89.4139 318.266 158.313C318.266 227.212 274.059 295.511 175.867 295.511H97.9034V436.938H1.53882V20.515H175.867ZM171.571 212.693C207.796 212.693 221.292 184.888 221.292 158.313C221.292 131.738 207.796 103.333 172.18 103.333H97.9034V212.725H171.571V212.693Z" fill="white"/>
<path fill-rule="evenodd" clip-rule="evenodd" d="M452.939 24.4602H382.413V83.7013H452.939V24.4602ZM436.109 110.434H455.279V146.666H468.487L488.199 146.688V224.888L468.487 224.867V166.222H455.279V397.708L417.676 437.696L380.073 397.708V110.434H399.243H399.243V83.7013H436.109V110.434Z" fill="white"/>
<path d="M1061.07 347.745C1045.65 347.745 1031.42 344.495 1018.66 338.656L942.905 354.847L965.474 285.38C955.824 265.875 950.503 243.119 950.503 219.037C950.503 149.16 996.858 92.1914 1061.61 92.1914C1101.81 92.1914 1131.4 113.022 1151.5 147.361L1219.62 95.2844C1184.46 38.8839 1125.28 1.4834 1057.73 1.4834C949.413 1.4834 862.345 100.145 862.345 219.037C862.345 337.93 949.445 438.422 1057.73 438.422C1125.28 438.422 1184.46 401.053 1219.66 344.652L1151.53 292.576C1131.43 326.883 1101.85 347.745 1061.1 347.745H1061.07Z" fill="white"/>
</svg>
