<svg width="198" height="342" viewBox="0 0 198 342" fill="none" xmlns="http://www.w3.org/2000/svg">
<rect x="198" width="342" height="198" rx="10" transform="rotate(90 198 0)" fill="#007A78"/>
<path d="M136.889 128.626V119.653H129.355V128.626H136.889Z" fill="white"/>
<path d="M129.355 126.485V121.794H125.951V126.485H129.355Z" fill="white"/>
<path d="M84.3345 149.602H126.084V137.048H136.953V149.602V161.218V173.596H126.084V161.218H84.3345V149.602Z" fill="white"/>
<path d="M84.3345 234.109H136.889V245.754H114.756V259.148H136.953V270.792H84.3345V259.148H104.224V245.754H84.3345V234.109Z" fill="white"/>
<path d="M137.391 93.375C137.391 105.872 128.628 111.492 119.866 111.492C111.104 111.492 102.417 105.868 102.417 93.375V83.4559H84.4308V71.1958H137.391V93.375ZM112.95 92.8284C112.95 97.4372 116.486 99.1543 119.866 99.1543C123.246 99.1543 126.858 97.4372 126.858 92.9059V83.4559H112.946V92.8284H112.95Z" fill="white"/>
<path d="M121.347 130.604V128.924H125.955V121.794V119.355H89.4202L84.3345 124.139L89.4202 128.924H118.86V130.604H111.402L111.399 133.112H121.344L121.347 130.604Z" fill="white"/>
<path d="M95.7742 205.996C95.7742 204.034 96.1877 202.223 96.9303 200.6L94.8711 190.963L103.706 193.834C106.186 192.606 109.081 191.929 112.143 191.929C121.03 191.929 128.275 197.827 128.275 206.065C128.275 211.18 125.626 214.944 121.259 217.502L127.882 226.169C135.055 221.694 139.811 214.165 139.811 205.572C139.811 191.79 127.264 180.713 112.143 180.713C97.0226 180.713 84.2421 191.795 84.2421 205.572C84.2421 214.165 88.9947 221.694 96.1676 226.173L102.791 217.506C98.4275 214.949 95.7742 211.184 95.7742 206V205.996Z" fill="white"/>
<path d="M67.384 89.7146L71.896 87.9386L67.384 86.1786V89.7146ZM63.784 86.6586H63V82.5306H63.784L64.056 83.6666L73.832 87.6026V89.0586L64.04 93.0106L63.784 94.2106H63V89.2826H63.784L64.072 91.0106L66.408 90.0986V85.8106L64.088 84.8986L63.784 86.6586ZM63.752 99.3551H63V95.2911H63.752L64.056 96.4751H69.448L70.136 95.2911H71L71.16 97.8511L68.984 98.0911C70.392 98.8751 71.224 100.107 71.224 101.403C71.224 102.587 70.584 103.547 69.048 103.547H64.072L63.752 104.683H63V100.635H63.752L64.056 101.819H68.76C69.624 101.819 69.848 101.627 69.864 101.019C69.896 99.4511 68.488 98.2031 66.392 98.2031H64.072L63.752 99.3551ZM74.84 111.907C74.84 112.515 74.408 112.947 73.784 112.947C72.952 112.947 72.392 112.275 72.392 111.587C72.392 110.995 72.776 110.515 73.48 110.515C74.312 110.515 74.84 111.235 74.84 111.907ZM63 114.131V109.635H63.752L64.072 110.899H69.464L70.136 109.635H71L71.16 112.627H64.088L63.752 114.131H63ZM62.824 121.278L65.064 121.134C63.768 120.526 62.84 119.422 62.84 118.302C62.84 116.606 64.456 115.134 66.76 115.134C69.384 115.134 71.224 116.942 71.224 119.23C71.224 119.966 71.064 120.638 70.856 121.102H73.144L73.8 119.422H74.68L74.84 122.83H64.2L63.736 124.014H63L62.824 121.278ZM64.12 118.622C64.12 119.838 65.736 121.102 68.584 121.102H69.336C69.88 120.638 70.184 119.694 70.184 119.054C70.184 117.742 69.336 117.086 67.384 117.086C65.208 117.086 64.12 117.822 64.12 118.622ZM70.152 128.219C69.832 127.691 68.984 127.179 67.768 127.051L67.832 130.715C69.736 130.571 70.312 129.483 70.312 128.763C70.312 128.571 70.264 128.395 70.152 128.219ZM64.68 132.395C63.416 131.675 62.824 130.395 62.824 128.955C62.824 127.003 64.2 125.195 66.52 125.195C69.336 125.195 71.24 127.307 71.24 129.547C71.24 131.371 69.496 132.651 67.416 132.651C67.224 132.651 67.032 132.651 66.84 132.619V127.035C65.064 127.147 64.232 128.219 64.232 129.643C64.232 130.331 64.504 131.195 65.192 131.787L64.68 132.395ZM63.944 137.046C63.944 137.958 65.224 139.094 66.92 139.11H67.24C67.064 138.134 66.84 137.382 66.552 136.87C66.216 136.278 65.672 136.006 65.032 136.006C64.344 136.006 63.944 136.406 63.944 137.046ZM62.84 139.222L64.696 139.142C63.736 138.71 62.824 137.734 62.824 136.358C62.824 135.238 63.416 134.166 64.792 134.166C66.568 134.166 67.368 135.83 68.024 139.11H68.92C69.816 139.11 70.232 138.79 70.232 137.926C70.232 136.998 69.704 136.31 68.52 135.814V135.078L70.456 134.662C70.776 135.19 71.208 136.422 71.208 137.638C71.208 139.622 70.328 140.822 68.6 140.822H64.2L63.736 142.006H63L62.84 139.222ZM63.864 148.945C63.432 148.497 62.824 147.601 62.824 146.433C62.824 145.057 63.592 144.145 65.032 144.145H70.024V142.529H71L71.416 144.049L73.528 144.801V145.921H71.016V148.257H70.024V145.921H64.728C64.264 145.921 64.12 146.081 64.12 146.465C64.12 147.281 64.376 148.001 64.632 148.529L63.864 148.945ZM74.84 152.235C74.84 152.843 74.408 153.275 73.784 153.275C72.952 153.275 72.392 152.603 72.392 151.915C72.392 151.323 72.776 150.843 73.48 150.843C74.312 150.843 74.84 151.563 74.84 152.235ZM63 154.459V149.963H63.752L64.072 151.227H69.464L70.136 149.963H71L71.16 152.955H64.088L63.752 154.459H63ZM62.808 159.142C62.808 157.094 64.504 155.382 66.616 155.382C69.336 155.382 71.208 157.222 71.208 159.702C71.208 161.51 69.768 163.478 67.384 163.478C64.6 163.478 62.808 161.574 62.808 159.142ZM70.168 159.142C70.168 158.134 69.224 157.302 67.272 157.302C65.192 157.302 63.864 158.406 63.864 159.75C63.864 160.646 64.488 161.542 66.552 161.542C68.744 161.542 70.168 160.614 70.168 159.142ZM63.752 168.933H63V164.869H63.752L64.056 166.053H69.448L70.136 164.869H71L71.16 167.429L68.984 167.669C70.392 168.453 71.224 169.685 71.224 170.981C71.224 172.165 70.584 173.125 69.048 173.125H64.072L63.752 174.261H63V170.213H63.752L64.056 171.397H68.76C69.624 171.397 69.848 171.205 69.864 170.597C69.896 169.029 68.488 167.781 66.392 167.781H64.072L63.752 168.933ZM65.192 185.645L64.696 186.285C63.432 185.549 62.808 184.397 62.808 182.877C62.808 180.845 64.216 179.117 66.536 179.117C69.304 179.117 71.224 181.149 71.224 183.821C71.224 184.685 71.096 185.501 70.808 186.205L68.76 185.821V185.005C69.704 184.509 70.184 183.693 70.216 183.053C70.232 182.733 70.2 182.509 70.024 182.237C69.656 181.661 68.648 181.101 67.192 181.101C65.368 181.101 64.264 182.029 64.264 183.597C64.264 184.301 64.552 185.053 65.192 185.645ZM63.944 190.359C63.944 191.271 65.224 192.407 66.92 192.423H67.24C67.064 191.447 66.84 190.695 66.552 190.183C66.216 189.591 65.672 189.319 65.032 189.319C64.344 189.319 63.944 189.719 63.944 190.359ZM62.84 192.535L64.696 192.455C63.736 192.023 62.824 191.047 62.824 189.671C62.824 188.551 63.416 187.479 64.792 187.479C66.568 187.479 67.368 189.143 68.024 192.423H68.92C69.816 192.423 70.232 192.103 70.232 191.239C70.232 190.311 69.704 189.623 68.52 189.127V188.391L70.456 187.975C70.776 188.503 71.208 189.735 71.208 190.951C71.208 192.935 70.328 194.135 68.6 194.135H64.2L63.736 195.319H63L62.84 192.535ZM63.752 200.802H63V196.338H63.752L64.056 197.522H69.464L70.136 196.338H71L71.176 198.914L68.744 199.186C70.184 199.682 71.208 200.53 71.208 202.178C71.208 202.45 71.208 202.722 71.144 203.058L68.632 202.77V201.874C69.416 201.666 69.688 201.41 69.688 200.994C69.688 200.082 67.464 199.266 65.128 199.266H65.16H64.088L63.752 200.802ZM62.824 210.137L65.064 209.993C63.768 209.385 62.84 208.281 62.84 207.161C62.84 205.465 64.456 203.993 66.76 203.993C69.384 203.993 71.224 205.801 71.224 208.089C71.224 208.825 71.064 209.497 70.856 209.961H73.144L73.8 208.281H74.68L74.84 211.689H64.2L63.736 212.873H63L62.824 210.137ZM64.12 207.481C64.12 208.697 65.736 209.961 68.584 209.961H69.336C69.88 209.497 70.184 208.553 70.184 207.913C70.184 206.601 69.336 205.945 67.384 205.945C65.208 205.945 64.12 206.681 64.12 207.481ZM67.992 222.985C69.256 222.985 70.312 222.169 70.312 221.257C70.312 220.569 69.752 220.121 68.776 220.121C67.464 220.121 66.52 220.969 66.52 221.849C66.52 222.521 67 222.985 67.992 222.985ZM62.328 225.689C60.568 225.689 59.464 223.913 59.464 221.417C59.464 219.481 60.072 217.897 61.432 217.897C62.28 217.897 62.84 218.537 63.192 219.353C63.416 218.809 63.848 218.425 64.504 218.425C65.256 218.425 65.784 218.953 66.136 219.689C66.616 218.825 67.416 218.329 68.44 218.329C70.088 218.329 71.24 219.721 71.24 221.961C71.24 222.553 71.208 223.065 71.144 223.785L71.016 225.657H69.624L70.232 223.497H70.136C69.576 224.425 68.888 224.793 68.104 224.793C66.504 224.793 65.704 223.081 65.704 221.641C65.704 221.257 65.752 220.889 65.816 220.553C65.624 220.057 65.368 219.849 65.096 219.849C64.392 219.849 64.616 221.401 64.44 222.953C64.264 224.745 63.752 225.689 62.328 225.689ZM60.36 221.977C60.36 223.289 60.84 224.073 61.688 224.073C63.176 224.073 62.84 221.737 63.032 220.105C62.696 219.705 62.28 219.481 61.816 219.481C60.824 219.481 60.36 220.441 60.36 221.977ZM63.944 229.859C63.944 230.771 65.224 231.907 66.92 231.923H67.24C67.064 230.947 66.84 230.195 66.552 229.683C66.216 229.091 65.672 228.819 65.032 228.819C64.344 228.819 63.944 229.219 63.944 229.859ZM62.84 232.035L64.696 231.955C63.736 231.523 62.824 230.547 62.824 229.171C62.824 228.051 63.416 226.979 64.792 226.979C66.568 226.979 67.368 228.643 68.024 231.923H68.92C69.816 231.923 70.232 231.603 70.232 230.739C70.232 229.811 69.704 229.123 68.52 228.627V227.891L70.456 227.475C70.776 228.003 71.208 229.235 71.208 230.451C71.208 232.435 70.328 233.635 68.6 233.635H64.2L63.736 234.819H63L62.84 232.035ZM63.752 239.902H63V235.838H63.752L64.056 237.022H69.448L70.136 235.838H71L71.16 238.398L68.984 238.638C70.392 239.422 71.224 240.654 71.224 241.95C71.224 243.102 70.616 244.046 69.16 244.094C70.472 244.878 71.224 246.062 71.224 247.294C71.224 248.478 70.584 249.438 69.048 249.438H64.072L63.752 250.574H63V246.526H63.752L64.056 247.71H68.76C69.624 247.71 69.848 247.518 69.864 246.91C69.896 245.342 68.424 244.094 66.12 244.094H64.072L63.752 245.23H63V241.182H63.752L64.056 242.366H68.76C69.624 242.366 69.848 242.174 69.864 241.566C69.896 239.998 68.488 238.75 66.392 238.75H64.072L63.752 239.902ZM70.152 254.578C69.832 254.05 68.984 253.538 67.768 253.41L67.832 257.074C69.736 256.93 70.312 255.842 70.312 255.122C70.312 254.93 70.264 254.754 70.152 254.578ZM64.68 258.754C63.416 258.034 62.824 256.754 62.824 255.314C62.824 253.362 64.2 251.554 66.52 251.554C69.336 251.554 71.24 253.666 71.24 255.906C71.24 257.73 69.496 259.01 67.416 259.01C67.224 259.01 67.032 259.01 66.84 258.978V253.394C65.064 253.506 64.232 254.578 64.232 256.002C64.232 256.69 64.504 257.554 65.192 258.146L64.68 258.754Z" fill="white"/>
<path d="M71.1558 322.354H75.1318C77.3718 322.354 78.3798 323.95 78.3798 325.546C78.3798 327.156 77.3718 328.724 75.1318 328.724H73.3538V332H71.1558V322.354ZM73.3538 326.806H75.0338C75.8598 326.806 76.1678 326.162 76.1678 325.546C76.1678 324.93 75.8598 324.272 75.0478 324.272H73.3538V326.806ZM87.2574 332H84.6954L82.4834 328.612H82.0354V332H79.8374V322.354H83.7854C86.0254 322.354 87.0334 323.95 87.0334 325.546C87.0334 326.904 86.0254 328.206 84.7794 328.486L87.2574 332ZM83.4914 324.272H82.0354V326.876H83.4354C84.4014 326.876 84.8214 326.246 84.8214 325.602C84.8214 324.958 84.3874 324.272 83.4914 324.272ZM93.1332 332.168C90.3752 332.168 88.2052 329.9 88.2052 327.17C88.2052 324.44 90.3752 322.186 93.1332 322.186C95.8492 322.186 98.0472 324.44 98.0472 327.17C98.0472 329.9 95.8492 332.168 93.1332 332.168ZM93.1192 330.096C94.7292 330.096 95.8352 328.78 95.8352 327.17C95.8352 325.56 94.7292 324.258 93.1192 324.258C91.4952 324.258 90.4172 325.56 90.4172 327.17C90.4172 328.78 91.4952 330.096 93.1192 330.096ZM109.644 322.354L110.82 332H108.566L107.936 326.512L105.836 330.894H104.156L102.056 326.526L101.412 332H99.158L100.348 322.354H102.182L104.996 328.388L107.768 322.354H109.644ZM112.527 322.354H116.503C118.743 322.354 119.751 323.95 119.751 325.546C119.751 327.156 118.743 328.724 116.503 328.724H114.725V332H112.527V322.354ZM114.725 326.806H116.405C117.231 326.806 117.539 326.162 117.539 325.546C117.539 324.93 117.231 324.272 116.419 324.272H114.725V326.806ZM120.383 322.354H127.677V324.272H125.129V332H122.931V324.272H120.383V322.354Z" fill="white"/>
</svg>
